<svg width="36" height="34" viewBox="0 0 36 34" fill="none" xmlns="http://www.w3.org/2000/svg">
<path d="M10.8676 26.8786C8.91647 26.8786 7.3201 28.3695 7.3201 30.1916C7.3201 32.0137 8.91647 33.5045 10.8676 33.5045C12.8187 33.5045 14.4151 32.0137 14.4151 30.1916C14.4151 28.3695 12.8187 26.8786 10.8676 26.8786ZM0.225098 0.375V3.68795H3.7726L10.1581 16.2772L7.67485 20.2527C7.49747 20.7497 7.3201 21.4123 7.3201 21.9092C7.3201 23.7313 8.91647 25.2222 10.8676 25.2222H32.1526V21.9092H11.5771C11.3997 21.9092 11.2223 21.7436 11.2223 21.5779V21.4122L12.8187 18.5962H25.9445C27.3635 18.5962 28.4277 17.9336 28.9599 16.9397L35.3453 6.17267C35.7001 5.84138 35.7001 5.67573 35.7001 5.34443C35.7001 4.35055 34.9906 3.68795 33.9263 3.68795H7.67485L6.07847 0.375H0.225098ZM28.6051 26.8786C26.654 26.8786 25.0576 28.3695 25.0576 30.1916C25.0576 32.0137 26.654 33.5045 28.6051 33.5045C30.5562 33.5045 32.1526 32.0137 32.1526 30.1916C32.1526 28.3695 30.5562 26.8786 28.6051 26.8786Z" fill="#25767B"/>
</svg>
