<svg width="45" height="45" viewBox="0 0 45 45" fill="none" xmlns="http://www.w3.org/2000/svg">
<g clip-path="url(#clip0)">
<path d="M44.2969 31.6406V42.8906C44.2969 43.2636 44.1487 43.6213 43.885 43.885C43.6213 44.1487 43.2636 44.2969 42.8906 44.2969H2.10938C1.73641 44.2969 1.37873 44.1487 1.11501 43.885C0.851283 43.6213 0.703125 43.2636 0.703125 42.8906V31.6406H44.2969Z" stroke="#25767B" stroke-width="2" stroke-linejoin="round"/>
<path d="M2.10938 31.6406V27.4219L3.51562 26.0156H41.4844L42.8906 27.4219V31.6406" stroke="#25767B" stroke-width="2" stroke-linejoin="round"/>
<path d="M41.4844 26.0157V9.84381C41.4883 9.65807 41.4546 9.47344 41.3853 9.30105C41.3161 9.12866 41.2126 8.97207 41.0812 8.84069C40.9499 8.70932 40.7933 8.60588 40.6209 8.5366C40.4485 8.46732 40.2639 8.43363 40.0781 8.43756H37.9688" stroke="#25767B" stroke-width="2" stroke-linejoin="round"/>
<path d="M3.51569 26.0157V9.84381C3.51176 9.65807 3.54545 9.47344 3.61473 9.30105C3.68401 9.12866 3.78744 8.97207 3.91882 8.84069C4.05019 8.70932 4.20679 8.60588 4.37918 8.5366C4.55157 8.46732 4.73619 8.43363 4.92194 8.43756H7.03131" stroke="#25767B" stroke-width="2" stroke-linejoin="round"/>
<path d="M37.2656 0.703125H18.9844C18.596 0.703125 18.2812 1.01792 18.2812 1.40625V9.84375C18.2812 10.2321 18.596 10.5469 18.9844 10.5469H37.2656C37.6539 10.5469 37.9688 10.2321 37.9688 9.84375V1.40625C37.9688 1.01792 37.6539 0.703125 37.2656 0.703125Z" stroke="#25767B" stroke-width="2" stroke-linejoin="round"/>
<path d="M35.1562 3.51562H21.0938V7.73438H35.1562V3.51562Z" stroke="#25767B" stroke-width="2" stroke-linejoin="round"/>
<path d="M0.703125 34.4531H17.5781L18.2812 37.2656H26.7188L27.4219 34.4531H44.2969" stroke="#25767B" stroke-width="2" stroke-linejoin="round"/>
<path d="M19.6875 34.4531H25.3125" stroke="#25767B" stroke-width="2" stroke-linejoin="round"/>
<path d="M18.2812 16.875H21.0938V14.0625H18.2812" stroke="#25767B" stroke-width="2" stroke-linejoin="round"/>
<path d="M26.7188 14.0625H23.9062V16.875H26.7188V14.0625Z" stroke="#25767B" stroke-width="2" stroke-linejoin="round"/>
<path d="M32.3438 14.0625H29.5312V16.875H32.3438V14.0625Z" stroke="#25767B" stroke-width="2" stroke-linejoin="round"/>
<path d="M32.3438 19.6875H29.5312V22.5H32.3438V19.6875Z" stroke="#25767B" stroke-width="2" stroke-linejoin="round"/>
<path d="M26.7188 19.6875H23.9062V22.5H26.7188V19.6875Z" stroke="#25767B" stroke-width="2" stroke-linejoin="round"/>
<path d="M21.0938 19.6875H18.2812V22.5H21.0938V19.6875Z" stroke="#25767B" stroke-width="2" stroke-linejoin="round"/>
<path d="M4.21875 28.8281H5.625" stroke="#25767B" stroke-width="2" stroke-linejoin="round"/>
<path d="M39.375 28.8281H40.7812" stroke="#25767B" stroke-width="2" stroke-linejoin="round"/>
<path d="M7.03125 28.8281H37.9688" stroke="#25767B" stroke-width="2" stroke-linejoin="round"/>
<path d="M15.4688 3.51562H7.03125V14.0625H15.4688V3.51562Z" stroke="#25767B" stroke-width="2" stroke-linejoin="round"/>
<path d="M15.4688 8.4375H18.2812" stroke="#25767B" stroke-width="2" stroke-linejoin="round"/>
<path d="M15.4688 16.875H7.03125V22.5H15.4688V16.875Z" stroke="#25767B" stroke-width="2" stroke-linejoin="round"/>
<path d="M37.9688 13.3594H35.1562V22.5H37.9688V13.3594Z" stroke="#25767B" stroke-width="2" stroke-linejoin="round"/>
<path d="M5.625 14.0625H16.875" stroke="#25767B" stroke-width="2" stroke-linejoin="round"/>
<path d="M7.03125 19.6875H15.4688" stroke="#25767B" stroke-width="2" stroke-linejoin="round"/>
<path d="M9.14062 6.32812H13.3594" stroke="#25767B" stroke-width="2" stroke-linejoin="round"/>
<path d="M9.14062 9.14062H10.5469" stroke="#25767B" stroke-width="2" stroke-linejoin="round"/>
<path d="M11.9531 9.14062H13.3594" stroke="#25767B" stroke-width="2" stroke-linejoin="round"/>
<path d="M3.51566 38.6719V40.7812C3.51365 40.8741 3.53046 40.9665 3.56508 41.0527C3.5997 41.1389 3.65142 41.2172 3.71712 41.2829C3.78282 41.3486 3.86113 41.4003 3.94735 41.435C4.03357 41.4696 4.1259 41.4864 4.21879 41.4844H6.32816" stroke="#25767B" stroke-width="2" stroke-linejoin="round"/>
</g>
<defs>
<clipPath id="clip0">
<rect width="45" height="45" fill="white"/>
</clipPath>
</defs>
</svg>
