<svg width="20" height="20" viewBox="0 0 20 20" fill="none" xmlns="http://www.w3.org/2000/svg">
<path d="M4.16665 15H2.49998C1.58331 15 0.833313 15.75 0.833313 16.6667C0.833313 17.5833 1.58331 18.3333 2.49998 18.3333H4.16665C5.08331 18.3333 5.83331 17.5833 5.83331 16.6667C5.83331 15.75 5.08331 15 4.16665 15Z" fill="#25767B"/>
<path d="M10.8333 13.3335H9.16667C8.25 13.3335 7.5 14.0835 7.5 15.0002V16.6668C7.5 17.5835 8.25 18.3335 9.16667 18.3335H10.8333C11.75 18.3335 12.5 17.5835 12.5 16.6668V15.0002C12.5 14.0835 11.75 13.3335 10.8333 13.3335Z" fill="#25767B"/>
<path d="M17.5 10H15.8333C14.9166 10 14.1666 10.75 14.1666 11.6667V16.6667C14.1666 17.5833 14.9166 18.3333 15.8333 18.3333H17.5C18.4166 18.3333 19.1666 17.5833 19.1666 16.6667V11.6667C19.1666 10.75 18.4166 10 17.5 10Z" fill="#25767B"/>
<path d="M18.3333 1.66675H12.8333C12.0833 1.66675 11.75 2.58341 12.25 3.08341L13.8333 4.66675C10.75 8.16675 6.33331 10.8334 1.66665 10.8334C1.16665 10.8334 0.833313 11.1667 0.833313 11.6667C0.833313 12.1667 1.16665 12.5001 1.66665 12.5001C7.24998 12.5001 12.4166 10.9167 16.1666 7.00008L17.6666 8.50008C18.1666 9.00008 19.0833 8.66675 19.0833 7.91675V2.50008C19.1666 2.00008 18.8333 1.66675 18.3333 1.66675Z" fill="#25767B"/>
</svg>
