<svg width="33" height="33" viewBox="0 0 33 33" fill="none" xmlns="http://www.w3.org/2000/svg">
<path d="M29.9317 10.9532C28.8986 10.9532 28.0597 11.7917 28.0597 12.8214C28.0597 13.8519 28.8986 14.6893 29.9317 14.6893C30.9614 14.6893 31.7996 13.8515 31.7996 12.8214C31.7996 11.7917 30.961 10.9532 29.9317 10.9532ZM3.07211 10.9532C2.03899 10.9532 1.20006 11.7917 1.20006 12.8214C1.20006 13.8519 2.03899 14.6893 3.07211 14.6893C4.10255 14.6893 4.9411 13.8515 4.9411 12.8214C4.9411 11.7917 4.10255 10.9532 3.07211 10.9532ZM24.3712 7.5552C22.8373 7.5552 21.5931 8.80248 21.5931 10.3376C21.5931 11.8696 22.8373 13.1146 24.3712 13.1146C25.9055 13.1146 27.1536 11.8696 27.1536 10.3376C27.1536 8.80402 25.9055 7.5552 24.3712 7.5552ZM33 24.4637H29.8323V18.6334C29.8323 17.6317 29.538 16.7018 29.0652 15.8909C29.3438 15.8095 29.6297 15.7516 29.9317 15.7516C31.6207 15.7516 33 17.1309 33 18.8241V24.4637ZM8.6284 7.5552C7.0933 7.5552 5.84604 8.80248 5.84604 10.3376C5.84604 11.8696 7.0933 13.1146 8.6284 13.1146C10.1585 13.1146 11.4058 11.8696 11.4058 10.3376C11.4058 8.80402 10.1589 7.5552 8.6284 7.5552ZM3.07211 15.7516C3.37415 15.7516 3.65622 15.8091 3.93561 15.8909C3.45781 16.7018 3.16844 17.6317 3.16844 18.6334V24.4637H0V18.8241C0 17.1305 1.38005 15.7516 3.07211 15.7516ZM16.4969 2C14.2327 2 12.3867 3.84406 12.3867 6.11066C12.3867 8.37687 14.2307 10.2232 16.4969 10.2232C18.7635 10.2232 20.6098 8.37687 20.6098 6.11066C20.6118 3.84367 18.7635 2 16.4969 2ZM28.8149 26.6336H23.9621V17.7626C23.9621 16.5425 23.6401 15.4077 23.1197 14.3903C23.5169 14.2729 23.9345 14.1896 24.3716 14.1896C26.8201 14.1896 28.8149 16.1806 28.8149 18.6334V26.6336ZM9.0329 17.7626V26.6336H4.18621V18.6334C4.18621 16.1829 6.17839 14.1896 8.6307 14.1896C9.06782 14.1896 9.48115 14.2729 9.87759 14.3903C9.35681 15.4077 9.0329 16.5425 9.0329 17.7626ZM10.0503 29.2015H22.9443V17.7626C22.9443 14.2072 20.0511 11.3158 16.4965 11.3158C12.9393 11.3158 10.0503 14.2072 10.0503 17.7626V29.2015Z" fill="white"/>
</svg>
