<svg width="22" height="21" viewBox="0 0 22 21" fill="none" xmlns="http://www.w3.org/2000/svg">
<path d="M19.9545 7.96774C19.2657 7.96774 18.7064 8.50137 18.7064 9.15662C18.7064 9.81236 19.2657 10.3453 19.9545 10.3453C20.6409 10.3453 21.1997 9.81211 21.1997 9.15662C21.1997 8.50137 20.6407 7.96774 19.9545 7.96774ZM2.04808 7.96774C1.35933 7.96774 0.800042 8.50137 0.800042 9.15662C0.800042 9.81236 1.35933 10.3453 2.04808 10.3453C2.73503 10.3453 3.29406 9.81211 3.29406 9.15662C3.29406 8.50137 2.73503 7.96774 2.04808 7.96774ZM16.2475 5.80539C15.2248 5.80539 14.3954 6.59912 14.3954 7.57601C14.3954 8.55095 15.2248 9.3432 16.2475 9.3432C17.2704 9.3432 18.1024 8.55095 18.1024 7.57601C18.1024 6.60009 17.2704 5.80539 16.2475 5.80539ZM22 16.5654H19.8882V12.8551C19.8882 12.2177 19.692 11.626 19.3768 11.1099C19.5625 11.0581 19.7531 11.0213 19.9545 11.0213C21.0805 11.0213 22 11.899 22 12.9765V16.5654ZM5.75227 5.80539C4.72887 5.80539 3.89736 6.59912 3.89736 7.57601C3.89736 8.55095 4.72887 9.3432 5.75227 9.3432C6.77234 9.3432 7.60385 8.55095 7.60385 7.57601C7.60385 6.60009 6.7726 5.80539 5.75227 5.80539ZM2.04808 11.0213C2.24943 11.0213 2.43748 11.0579 2.62374 11.1099C2.30521 11.626 2.11229 12.2177 2.11229 12.8551V16.5654H0V12.9765C0 11.8988 0.920035 11.0213 2.04808 11.0213ZM10.998 2.27026C9.48844 2.27026 8.2578 3.44376 8.2578 4.88614C8.2578 6.32827 9.48716 7.50323 10.998 7.50323C12.509 7.50323 13.7399 6.32827 13.7399 4.88614C13.7412 3.44351 12.509 2.27026 10.998 2.27026ZM19.21 17.9462H15.9747V12.301C15.9747 11.5246 15.7601 10.8024 15.4132 10.155C15.678 10.0803 15.9563 10.0273 16.2477 10.0273C17.8801 10.0273 19.21 11.2943 19.21 12.8551V17.9462ZM6.02193 12.301V17.9462H2.79081V12.8551C2.79081 11.2958 4.11892 10.0273 5.7538 10.0273C6.04522 10.0273 6.32077 10.0803 6.58506 10.155C6.23787 10.8024 6.02193 11.5246 6.02193 12.301ZM6.70019 19.5803H15.2962V12.301C15.2962 10.0385 13.3674 8.19853 10.9977 8.19853C8.62623 8.19853 6.70019 10.0385 6.70019 12.301V19.5803Z" fill="white"/>
</svg>
