<svg width="22" height="22" viewBox="0 0 22 22" fill="none" xmlns="http://www.w3.org/2000/svg">
<path d="M11.1525 0.428223C10.0599 0.428168 8.99176 0.752119 8.08325 1.35911C7.17474 1.9661 6.46663 2.82886 6.04847 3.8383C5.6303 4.84773 5.52086 5.9585 5.73399 7.03014C5.94711 8.10177 6.47323 9.08614 7.24581 9.85876C8.0184 10.6314 9.00274 11.1575 10.0744 11.3707C11.146 11.5839 12.2568 11.4745 13.2662 11.0564C14.2757 10.6383 15.1385 9.93023 15.7455 9.02175C16.3525 8.11327 16.6765 7.04518 16.6765 5.95256C16.6765 4.48746 16.0946 3.08237 15.0586 2.04636C14.0226 1.01035 12.6176 0.428296 11.1525 0.428223ZM10.7199 5.56141H11.5692C11.9499 5.56105 12.3151 5.71191 12.5844 5.98081C12.8538 6.2497 13.0054 6.6146 13.0057 6.99522C13.0061 7.37585 12.8552 7.74103 12.5863 8.01043C12.3175 8.27982 11.9526 8.43137 11.5719 8.43172V9.13878C11.5734 9.20065 11.5625 9.2622 11.5399 9.31981C11.5173 9.37741 11.4833 9.4299 11.4401 9.4742C11.3969 9.51849 11.3452 9.55369 11.2882 9.57773C11.2312 9.60176 11.1699 9.61414 11.108 9.61414C11.0461 9.61414 10.9848 9.60176 10.9278 9.57773C10.8708 9.55369 10.8191 9.51849 10.7759 9.4742C10.7327 9.4299 10.6987 9.37741 10.6761 9.31981C10.6535 9.2622 10.6426 9.20065 10.6441 9.13878V8.43189H9.67594C9.55286 8.43189 9.43483 8.383 9.3478 8.29597C9.26077 8.20894 9.21188 8.09091 9.21188 7.96783C9.21188 7.84475 9.26077 7.72672 9.3478 7.63969C9.43483 7.55266 9.55286 7.50377 9.67594 7.50377H11.5692C11.6363 7.50455 11.7029 7.49201 11.7651 7.46688C11.8273 7.44175 11.8839 7.40453 11.9316 7.35737C11.9793 7.31021 12.0172 7.25405 12.0431 7.19214C12.0689 7.13024 12.0822 7.06382 12.0822 6.99674C12.0822 6.92965 12.0689 6.86323 12.0431 6.80133C12.0172 6.73942 11.9793 6.68326 11.9316 6.6361C11.8839 6.58894 11.8273 6.55172 11.7651 6.52659C11.7029 6.50146 11.6363 6.48892 11.5692 6.4897H10.7199C10.3267 6.49057 9.9488 6.33753 9.66697 6.06333C9.38514 5.78912 9.22181 5.41552 9.21189 5.02244C9.20198 4.62935 9.34628 4.24799 9.61393 3.95993C9.88158 3.67187 10.2513 3.49998 10.6441 3.48103V2.76641C10.6426 2.70454 10.6535 2.64299 10.6761 2.58538C10.6987 2.52778 10.7327 2.47528 10.7759 2.43099C10.8191 2.3867 10.8708 2.3515 10.9278 2.32747C10.9848 2.30343 11.0461 2.29105 11.108 2.29105C11.1699 2.29105 11.2312 2.30343 11.2882 2.32747C11.3452 2.3515 11.3969 2.3867 11.4401 2.43099C11.4833 2.47528 11.5173 2.52778 11.5399 2.58538C11.5625 2.64299 11.5734 2.70454 11.5719 2.76641V3.47319H12.629C12.7521 3.47319 12.8701 3.52209 12.9572 3.60912C13.0442 3.69614 13.0931 3.81418 13.0931 3.93726C13.0931 4.06033 13.0442 4.17837 12.9572 4.2654C12.8701 4.35243 12.7521 4.40132 12.629 4.40132H10.7199C10.5661 4.40132 10.4186 4.46243 10.3098 4.5712C10.201 4.67997 10.1399 4.8275 10.1399 4.98133C10.1399 5.13516 10.201 5.28269 10.3098 5.39146C10.4186 5.50023 10.5661 5.56134 10.7199 5.56134V5.56141Z" fill="#25767B"/>
<path d="M5.19266 12.6279H2.93842C2.89129 12.6279 2.84463 12.6372 2.8011 12.6552C2.75757 12.6733 2.71801 12.6997 2.6847 12.733C2.65139 12.7664 2.62497 12.8059 2.60696 12.8495C2.58894 12.893 2.57968 12.9397 2.57971 12.9868V20.6803C2.57972 20.7754 2.61752 20.8667 2.68479 20.9339C2.75205 21.0012 2.84329 21.039 2.93842 21.039H5.19266C5.4 21.0389 5.59883 20.9565 5.74543 20.8099C5.89203 20.6633 5.97438 20.4645 5.97438 20.2571V13.4096C5.97434 13.2023 5.89196 13.0035 5.74537 12.8569C5.59878 12.7103 5.39997 12.628 5.19266 12.6279Z" fill="#25767B"/>
<path d="M19.3627 13.5315C19.2436 13.35 19.0811 13.2011 18.89 13.0981C18.6989 12.9952 18.4851 12.9414 18.268 12.9417H17.3846C17.0055 12.9409 16.6349 13.053 16.3198 13.2638C16.0048 13.4746 15.7597 13.7745 15.6158 14.1252C15.5304 14.329 15.4114 14.5171 15.2638 14.6816C15.0129 15.0669 14.6734 15.3865 14.2737 15.6137C13.874 15.8409 13.4257 15.9691 12.9663 15.9876L10.3495 15.9877C10.2265 15.9877 10.1084 15.9388 10.0214 15.8518C9.93437 15.7648 9.88548 15.6467 9.88548 15.5237C9.88548 15.4006 9.93437 15.2826 10.0214 15.1955C10.1084 15.1085 10.2265 15.0596 10.3495 15.0596H12.9539C13.2885 15.051 13.6135 14.9464 13.8904 14.7583V14.7426C13.8913 14.5064 13.8456 14.2724 13.7558 14.054C13.6661 13.8355 13.5341 13.6369 13.3675 13.4696C13.2008 13.3023 13.0027 13.1695 12.7847 13.0789C12.5666 12.9883 12.3327 12.9417 12.0966 12.9417H10.1764C9.82553 12.9406 9.47793 13.0091 9.15362 13.143C8.82932 13.2769 8.53472 13.4737 8.2868 13.722L8.23778 13.7708C7.87446 14.1336 7.40794 14.3752 6.90204 14.4627V19.5885H13.9047C14.943 19.5892 15.9586 19.2851 16.8257 18.714C17.6928 18.1429 18.3732 17.3298 18.7825 16.3756L19.4724 14.77C19.5584 14.5707 19.5934 14.3531 19.5743 14.1369C19.5551 13.9206 19.4824 13.7126 19.3627 13.5315Z" fill="#25767B"/>
</svg>
