<svg width="31" height="31" viewBox="0 0 31 31" fill="none" xmlns="http://www.w3.org/2000/svg">
<rect width="31" height="31" fill="white"/>
<path d="M15.5 3.875C9.55833 3.875 4.64997 8.26665 4.00415 14.0792L6.5875 14.3375C7.10415 9.94588 10.9792 6.45835 15.5 6.45835C20.0208 6.45835 23.8958 9.94582 24.4124 14.4667L26.9958 14.2084C26.35 8.26665 21.4416 3.875 15.5 3.875Z" fill="#25767B"/>
<path d="M15.5 18.0834L12.7875 11.1084L10.4625 12.1417L13.0458 19.1167C12.1416 19.7625 11.625 20.7959 11.625 21.9584C11.625 24.1542 13.3042 25.8334 15.5 25.8334C17.6958 25.8334 19.375 24.1542 19.375 21.9584C19.375 19.7626 17.6958 18.0834 15.5 18.0834ZM16.7916 23.25H14.2083V20.6667H16.7916V23.25Z" fill="#25767B"/>
<path d="M15.5 0C6.975 0 0 6.975 0 15.5C0 24.025 6.975 31 15.5 31C24.025 31 31 24.025 31 15.5C31 6.975 24.025 0 15.5 0ZM15.5 28.4166C8.39582 28.4166 2.58335 22.6042 2.58335 15.5C2.58335 8.39582 8.39582 2.58335 15.5 2.58335C22.6042 2.58335 28.4166 8.39582 28.4166 15.5C28.4166 22.6042 22.6042 28.4166 15.5 28.4166Z" fill="#25767B"/>
</svg>
