<svg width="39" height="39" viewBox="0 0 39 39" fill="none" xmlns="http://www.w3.org/2000/svg">
<path d="M19.5 4.875C12.025 4.875 5.84999 10.4 5.03751 17.7125L8.28753 18.0375C8.93751 12.5126 13.8125 8.12503 19.5 8.12503C25.1875 8.12503 30.0625 12.5125 30.7125 18.2001L33.9625 17.875C33.15 10.4 26.975 4.875 19.5 4.875Z" fill="white"/>
<path d="M19.5 22.75L16.0875 13.975L13.1625 15.2749L16.4125 24.0499C15.275 24.8624 14.625 26.1624 14.625 27.625C14.625 30.3875 16.7375 32.5 19.5 32.5C22.2625 32.5 24.375 30.3875 24.375 27.625C24.375 24.8625 22.2625 22.75 19.5 22.75ZM21.125 29.25H17.875V25.9999H21.125V29.25Z" fill="white"/>
<path d="M19.5 0C8.775 0 0 8.775 0 19.5C0 30.225 8.775 39 19.5 39C30.225 39 39 30.225 39 19.5C39 8.775 30.225 0 19.5 0ZM19.5 35.75C10.5625 35.75 3.25003 28.4375 3.25003 19.5C3.25003 10.5625 10.5625 3.25003 19.5 3.25003C28.4375 3.25003 35.75 10.5625 35.75 19.5C35.75 28.4375 28.4375 35.75 19.5 35.75Z" fill="white"/>
</svg>
