<svg width="42" height="42" viewBox="0 0 42 42" fill="none" xmlns="http://www.w3.org/2000/svg">
<path d="M17.2308 17.2307C24.3654 17.2307 30.1538 14.3365 30.1538 10.7692C30.1538 7.20185 24.3654 4.30762 17.2308 4.30762C10.092 4.30762 4.30768 7.20185 4.30768 10.7692C4.30768 14.3365 10.092 17.2307 17.2308 17.2307ZM19.0144 11.6989C18.6526 11.5811 17.8449 11.4381 16.5997 11.2614C15.4765 11.1057 14.6015 10.9501 13.9705 10.7986C13.3395 10.6472 12.8263 10.4348 12.4308 10.1613C12.0396 9.88574 11.8419 9.56603 11.8419 9.20425C11.8419 8.72677 12.1953 8.2956 12.8978 7.91491C13.6004 7.53421 14.7067 7.30072 16.217 7.2145V6.46146H18.2573V7.2145C20.5373 7.32388 22.0139 7.84134 22.6827 8.76258L19.8726 9.22532C19.3258 8.59222 18.4802 8.2746 17.3318 8.2746C16.7554 8.2746 16.2927 8.34615 15.9436 8.48702C15.5944 8.6279 15.4219 8.80041 15.4219 9.00233C15.4219 9.20634 15.5902 9.36411 15.9267 9.47348C16.2591 9.58286 16.9827 9.71956 18.0848 9.88157C19.2964 10.0583 20.2471 10.2265 20.9328 10.3822C21.6227 10.54 22.1738 10.7587 22.586 11.0343C22.9941 11.3119 23.2002 11.6359 23.2002 12.0061C23.2002 12.5782 22.7754 13.0514 21.9298 13.4322C21.08 13.8108 19.8559 14.0359 18.2573 14.1032V15.0768H16.217V14.1072C13.5457 13.9978 11.8967 13.3773 11.2573 12.2458L14.4123 11.9176C14.7068 12.6286 15.6743 12.984 17.315 12.984C18.0848 12.984 18.6527 12.9083 19.0145 12.7548C19.3763 12.6034 19.5572 12.4183 19.5572 12.2037C19.5571 11.9807 19.3762 11.8124 19.0144 11.6989ZM4.30768 15.0768C4.30768 14.694 4.3834 14.3217 4.51384 13.9579C6.70551 16.545 11.5096 18.3076 17.2308 18.3076C18.8714 18.3076 20.4237 18.1478 21.875 17.8806C20.3606 18.7998 19.0691 20.0408 18.0973 21.5173C17.8071 21.5258 17.5211 21.5384 17.2308 21.5384C10.092 21.5384 4.30768 18.6442 4.30768 15.0768ZM30.1538 15.0768C30.1538 15.5018 30.0655 15.9182 29.9056 16.322C29.283 16.2211 28.652 16.1538 27.9999 16.1538C27.6466 16.1538 27.3016 16.1769 26.9566 16.2063C28.1893 15.5648 29.2199 14.8118 29.9477 13.9579C30.0739 14.3217 30.1538 14.6941 30.1538 15.0768ZM22.14 38.2833C20.6256 38.5946 18.9682 38.7692 17.2308 38.7692C10.092 38.7692 4.30768 35.8749 4.30768 32.3076C4.30768 31.9248 4.3834 31.5525 4.51384 31.1886C6.70551 33.7757 11.5096 35.5384 17.2308 35.5384C17.7735 35.5384 18.2993 35.5089 18.8209 35.4774C19.7422 36.6048 20.8696 37.5555 22.14 38.2833ZM4.30768 27.9999C4.30768 27.6171 4.3834 27.2448 4.51384 26.8809C6.62562 29.3713 11.1689 31.0813 16.6082 31.2075C16.9322 32.3665 17.4286 33.4539 18.0722 34.4404C17.7903 34.4488 17.5126 34.4614 17.2308 34.4614C10.092 34.4615 4.30768 31.5672 4.30768 27.9999ZM4.30768 23.6922C4.30768 23.3094 4.3834 22.9371 4.51384 22.5732C6.57514 25.0026 10.9501 26.6853 16.2086 26.883C16.1749 27.2511 16.1538 27.6234 16.1538 27.9999C16.1538 28.7277 16.2296 29.4386 16.3558 30.1328C9.62923 29.9055 4.30768 27.1123 4.30768 23.6922ZM4.30768 19.3845C4.30768 19.0017 4.3834 18.6294 4.51384 18.2655C6.70551 20.8527 11.5096 22.6153 17.2308 22.6153C17.3107 22.6153 17.3864 22.6069 17.4663 22.6069C16.9531 23.606 16.5745 24.685 16.3642 25.825C9.6334 25.6 4.30768 22.8046 4.30768 19.3845ZM28 17.2307C22.0474 17.2307 17.2308 22.0558 17.2308 27.9999C17.2308 33.9503 22.0474 38.7692 28 38.7692C33.9483 38.7692 38.7692 33.9503 38.7692 27.9999C38.7692 22.0558 33.9483 17.2307 28 17.2307ZM31.7608 33.3236C31.0836 34.085 30.0991 34.5309 28.8203 34.6655V36.6133H27.1881V34.6762C25.0552 34.4574 23.7343 33.2143 23.2253 30.951L25.7452 30.2948C25.9808 31.7167 26.7548 32.4276 28.0715 32.4276C28.6815 32.4276 29.1358 32.2762 29.426 31.9712C29.7163 31.6662 29.8635 31.3002 29.8635 30.869C29.8635 30.4231 29.7163 30.0845 29.426 29.8573C29.1358 29.6259 28.4921 29.3336 27.4951 28.9803C26.5991 28.671 25.8966 28.3641 25.3917 28.0569C24.8869 27.754 24.4789 27.3291 24.1592 26.7822C23.8479 26.2332 23.6881 25.5938 23.6881 24.8681C23.6881 23.9131 23.9699 23.0529 24.5336 22.2894C25.0973 21.5259 25.9807 21.061 27.1881 20.8907V19.3845H28.8203V20.8905C30.646 21.1093 31.8281 22.1399 32.3623 23.9846L30.1159 24.9101C29.6784 23.6418 29.0012 23.0107 28.0799 23.0107C27.6214 23.0107 27.2512 23.1517 26.9735 23.4356C26.6916 23.7196 26.5528 24.0603 26.5528 24.462C26.5528 24.8743 26.6874 25.1877 26.9566 25.4086C27.2259 25.6273 27.8022 25.8986 28.6814 26.2226C29.6532 26.576 30.4146 26.9105 30.9615 27.2259C31.5126 27.5393 31.9542 27.9768 32.2866 28.53C32.6106 29.0853 32.7788 29.7331 32.7788 30.4735C32.7788 31.6135 32.4381 32.5621 31.7608 33.3236Z" fill="white"/>
</svg>
