<svg width="20" height="20" viewBox="0 0 20 20" fill="none" xmlns="http://www.w3.org/2000/svg">
<path d="M8.20512 8.20512C11.6026 8.20512 14.359 6.82691 14.359 5.12819C14.359 3.42947 11.6026 2.05127 8.20512 2.05127C4.80569 2.05127 2.05127 3.42947 2.05127 5.12819C2.05127 6.82691 4.80569 8.20512 8.20512 8.20512ZM9.05447 5.57092C8.8822 5.51483 8.49758 5.44672 7.90463 5.36258C7.36976 5.28845 6.9531 5.21435 6.65262 5.14223C6.35213 5.07012 6.10774 4.96896 5.91944 4.83874C5.73313 4.70752 5.63899 4.55528 5.63899 4.383C5.63899 4.15563 5.80726 3.95031 6.14181 3.76903C6.47637 3.58774 7.00319 3.47656 7.72236 3.4355V3.07691H8.69393V3.4355C9.77967 3.48758 10.4828 3.73399 10.8013 4.17268L9.46316 4.39303C9.20274 4.09156 8.80008 3.94031 8.25322 3.94031C7.97877 3.94031 7.75842 3.97438 7.59217 4.04146C7.42592 4.10855 7.34377 4.19069 7.34377 4.28685C7.34377 4.38399 7.4239 4.45912 7.58415 4.51121C7.74242 4.56329 8.08697 4.62839 8.61181 4.70553C9.18874 4.78967 9.64146 4.8698 9.968 4.94393C10.2965 5.01906 10.559 5.12322 10.7552 5.25444C10.9496 5.38665 11.0477 5.54092 11.0477 5.7172C11.0477 5.98963 10.8454 6.21499 10.4427 6.3963C10.0381 6.57659 9.45518 6.68377 8.69396 6.71582V7.17947H7.72239V6.71774C6.45034 6.66566 5.66508 6.37018 5.3606 5.83133L6.863 5.67508C7.00322 6.01364 7.46396 6.1829 8.24521 6.1829C8.61181 6.1829 8.88223 6.14685 9.05451 6.07374C9.22678 6.00162 9.31294 5.91348 9.31294 5.8113C9.3129 5.70512 9.22675 5.62499 9.05447 5.57092ZM2.05127 7.17947C2.05127 6.99717 2.08733 6.81989 2.14944 6.64662C3.1931 7.87861 5.48076 8.71794 8.20512 8.71794C8.98637 8.71794 9.72556 8.64182 10.4167 8.5146C9.6955 8.9523 9.0805 9.54326 8.61778 10.2464C8.47957 10.2504 8.34335 10.2564 8.20512 10.2564C4.80569 10.2564 2.05127 8.87819 2.05127 7.17947ZM14.359 7.17947C14.359 7.38181 14.3169 7.58012 14.2408 7.77242C13.9443 7.72435 13.6438 7.6923 13.3333 7.6923C13.165 7.6923 13.0008 7.70332 12.8365 7.71733C13.4234 7.41185 13.9142 7.05326 14.2608 6.64662C14.3209 6.81989 14.359 6.9972 14.359 7.17947ZM10.5429 18.2301C9.82172 18.3784 9.03245 18.4615 8.20512 18.4615C4.80569 18.4615 2.05127 17.0833 2.05127 15.3846C2.05127 15.2023 2.08733 15.025 2.14944 14.8518C3.1931 16.0837 5.48076 16.9231 8.20512 16.9231C8.46354 16.9231 8.71393 16.909 8.96233 16.894C9.40104 17.4309 9.9379 17.8836 10.5429 18.2301ZM2.05127 13.3333C2.05127 13.151 2.08733 12.9737 2.14944 12.8005C3.15505 13.9864 5.31851 14.8007 7.90867 14.8608C8.06294 15.4126 8.29931 15.9305 8.60579 16.4002C8.47156 16.4042 8.33935 16.4102 8.20515 16.4102C4.80569 16.4102 2.05127 15.032 2.05127 13.3333ZM2.05127 11.282C2.05127 11.0997 2.08733 10.9225 2.14944 10.7492C3.13101 11.906 5.21435 12.7073 7.71835 12.8015C7.70233 12.9768 7.6923 13.154 7.6923 13.3333C7.6923 13.6799 7.72835 14.0184 7.78845 14.349C4.58534 14.2408 2.05127 12.9106 2.05127 11.282ZM2.05127 9.23076C2.05127 9.04845 2.08733 8.87117 2.14944 8.6979C3.1931 9.92989 5.48076 10.7692 8.20512 10.7692C8.24319 10.7692 8.27925 10.7652 8.31729 10.7652C8.0729 11.241 7.89262 11.7548 7.79246 12.2976C4.58733 12.1905 2.05127 10.8593 2.05127 9.23076ZM13.3333 8.20512C10.4988 8.20512 8.20512 10.5028 8.20512 13.3333C8.20512 16.1668 10.4988 18.4615 13.3333 18.4615C16.1659 18.4615 18.4615 16.1668 18.4615 13.3333C18.4615 10.5028 16.1659 8.20512 13.3333 8.20512ZM15.1242 15.8684C14.8017 16.231 14.3329 16.4433 13.7239 16.5074V17.4349H12.9467V16.5125C11.931 16.4083 11.302 15.8163 11.0597 14.7386L12.2596 14.4261C12.3718 15.1032 12.7404 15.4418 13.3674 15.4418C13.6578 15.4418 13.8742 15.3696 14.0124 15.2244C14.1506 15.0792 14.2207 14.9049 14.2207 14.6996C14.2207 14.4872 14.1506 14.326 14.0124 14.2178C13.8742 14.1076 13.5677 13.9684 13.0929 13.8001C12.6662 13.6529 12.3317 13.5067 12.0913 13.3604C11.8509 13.2162 11.6566 13.0139 11.5044 12.7534C11.3561 12.492 11.28 12.1876 11.28 11.842C11.28 11.3872 11.4142 10.9776 11.6826 10.614C11.9511 10.2504 12.3717 10.0291 12.9467 9.94797V9.23076H13.7239V9.9479C14.5933 10.0521 15.1562 10.5428 15.4106 11.4213L14.3409 11.862C14.1326 11.258 13.8101 10.9575 13.3714 10.9575C13.153 10.9575 12.9767 11.0246 12.8445 11.1598C12.7103 11.2951 12.6442 11.4573 12.6442 11.6486C12.6442 11.8449 12.7083 11.9942 12.8365 12.0993C12.9647 12.2035 13.2391 12.3327 13.6578 12.487C14.1206 12.6552 14.4831 12.8145 14.7435 12.9647C15.006 13.114 15.2163 13.3223 15.3746 13.5857C15.5288 13.8501 15.609 14.1586 15.609 14.5112C15.609 15.0541 15.4467 15.5058 15.1242 15.8684Z" fill="white"/>
</svg>
