<svg width="48" height="45" viewBox="0 0 48 45" fill="none" xmlns="http://www.w3.org/2000/svg">
<g clip-path="url(#clip0)">
<path d="M0 29.5905H9.42366C8.79722 30.4215 8.41883 31.438 8.41883 32.5606H3.7767L0 31.6117V29.5905ZM48 24.2962V32.5612H44C44 32.4432 43.9843 32.3319 43.9747 32.2139C43.9312 31.538 43.7435 30.8932 43.4466 30.3101C42.6186 28.7044 40.9409 27.6064 39 27.6064C36.2378 27.6064 33.997 29.8264 33.997 32.5606H18.4158C18.4158 31.438 18.0392 30.4215 17.408 29.5905H32.3066V12.39H40.6632V14.3735L43.3289 22.3098L48 24.2962ZM41.3277 22.3104L39.3337 16.3581H34.6657V22.3104H41.3277ZM17.0815 32.5606C17.0815 34.5692 15.4412 36.2001 13.4206 36.2001C11.3923 36.2001 9.75317 34.5632 9.75317 32.5606C9.75317 30.561 11.3953 28.9277 13.4206 28.9277C15.4406 28.9277 17.0815 30.558 17.0815 32.5606ZM15.417 32.5606C15.417 31.4698 14.5184 30.5765 13.42 30.5765C12.3108 30.5765 11.4104 31.4698 11.4104 32.5606C11.4104 33.6646 12.3102 34.5441 13.42 34.5441C14.519 34.5447 15.417 33.6646 15.417 32.5606ZM42.6657 32.5606C42.6657 34.5692 41.0187 36.2001 39 36.2001C36.9626 36.2001 35.3313 34.5632 35.3313 32.5606C35.3313 30.561 36.9753 28.9277 39 28.9277C41.0187 28.9277 42.6657 30.558 42.6657 32.5606ZM41.0006 32.5606C41.0006 31.4698 40.1038 30.5765 39.0006 30.5765C37.8847 30.5765 37.0012 31.4698 37.0012 32.5606C37.0012 33.6646 37.8853 34.5441 39.0006 34.5441C40.1032 34.5447 41.0006 33.6646 41.0006 32.5606ZM30.5878 9.80005H0V28.45H30.5878V9.80005Z" fill="white"/>
</g>
<defs>
<clipPath id="clip0">
<rect width="48" height="45" fill="white"/>
</clipPath>
</defs>
</svg>
