<svg width="22" height="20" viewBox="0 0 22 20" fill="none" xmlns="http://www.w3.org/2000/svg">
<path d="M0.833374 13.0628H4.73263C4.47343 13.4013 4.31686 13.8155 4.31686 14.2728H2.39607L0.833374 13.8862V13.0628ZM20.6945 10.9058V14.273H19.0394C19.0394 14.225 19.0329 14.1796 19.0289 14.1316C19.0109 13.8562 18.9332 13.5935 18.8104 13.3559C18.4678 12.7018 17.7736 12.2544 16.9705 12.2544C15.8276 12.2544 14.9004 13.1589 14.9004 14.2728H8.45334C8.45334 13.8155 8.29751 13.4013 8.03632 13.0628H14.201V6.05516H17.6587V6.86324L18.7617 10.0965L20.6945 10.9058ZM17.9337 10.0968L17.1086 7.67181H15.1771V10.0968H17.9337ZM7.90122 14.2728C7.90122 15.0911 7.22251 15.7555 6.38647 15.7555C5.54719 15.7555 4.86897 15.0887 4.86897 14.2728C4.86897 13.4581 5.54844 12.7927 6.38647 12.7927C7.22226 12.7927 7.90122 13.4569 7.90122 14.2728ZM7.21252 14.2728C7.21252 13.8284 6.8407 13.4645 6.38622 13.4645C5.92725 13.4645 5.55468 13.8284 5.55468 14.2728C5.55468 14.7226 5.927 15.0809 6.38622 15.0809C6.84094 15.0811 7.21252 14.7226 7.21252 14.2728ZM18.4873 14.2728C18.4873 15.0911 17.8058 15.7555 16.9705 15.7555C16.1275 15.7555 15.4525 15.0887 15.4525 14.2728C15.4525 13.4581 16.1327 12.7927 16.9705 12.7927C17.8058 12.7927 18.4873 13.4569 18.4873 14.2728ZM17.7983 14.2728C17.7983 13.8284 17.4272 13.4645 16.9708 13.4645C16.509 13.4645 16.1435 13.8284 16.1435 14.2728C16.1435 14.7226 16.5093 15.0809 16.9708 15.0809C17.427 15.0811 17.7983 14.7226 17.7983 14.2728ZM13.4898 5H0.833374V12.5981H13.4898V5Z" fill="white"/>
</svg>
