<svg width="41" height="41" viewBox="0 0 41 41" fill="none" xmlns="http://www.w3.org/2000/svg">
<path d="M31.2119 24.0662C30.6357 23.7597 29.9827 23.4121 29.287 23.0376C29.1496 22.9635 28.9805 22.9824 28.8627 23.085L23.3485 27.8876L17.8439 23.0856C17.7261 22.9828 17.557 22.9639 17.4195 23.0379C16.4736 23.5468 15.6253 23.9926 14.8769 24.3858C13.568 25.0736 12.5301 25.6192 11.7044 26.1163C4.62843 23.1322 2.38456 18.5157 4.22836 10.7315L11.8233 7.29522L16.12 9.3473C16.0247 9.79927 15.9744 10.2664 15.9744 10.7444C15.9744 14.2803 18.5455 20.8761 23.4608 20.8761C28.376 20.8761 30.9472 14.2803 30.9472 10.7444C30.9472 6.82717 27.5888 3.64014 23.4608 3.64014C20.1158 3.64014 17.2764 5.73282 16.3194 8.61091L11.9893 6.54281C11.8894 6.49508 11.7736 6.49404 11.6729 6.53953L3.75165 10.1235C3.64651 10.1711 3.56908 10.2645 3.54169 10.3767C2.47289 14.7696 2.67036 18.2321 4.14532 20.9619C5.41472 23.3114 7.58387 25.1155 10.9417 26.6049C10.2006 27.1156 9.6824 27.6067 9.31692 28.194C8.49332 29.5175 8.51222 31.2049 8.54994 34.5667C8.55802 35.2815 8.56707 36.0916 8.56883 36.9853C8.56923 37.1923 8.73716 37.3598 8.94408 37.3598H37.7512C37.851 37.3598 37.9467 37.32 38.0172 37.2492C38.0876 37.1785 38.127 37.0826 38.1264 36.9828C38.1219 36.0812 38.1264 35.266 38.1302 34.5466C38.1661 27.8305 38.1014 27.7324 31.2119 24.0662ZM30.1967 10.7446C30.1967 12.5885 29.4953 14.9436 28.41 16.7441C27.4798 18.2869 25.8662 20.1258 23.4607 20.1258H23.4606C25.8662 20.1257 27.4796 18.2868 28.4098 16.7441C29.4953 14.9436 30.1966 12.5885 30.1966 10.7446C30.1966 7.24109 27.1749 4.39079 23.4606 4.39071H23.4607C27.1749 4.39071 30.1967 7.24101 30.1967 10.7446ZM24.0724 34.8354H22.6231V33.4008H24.0724V34.8354ZM22.6107 31.9693V30.5347H24.06V31.9693H22.6107ZM23.1015 28.6681C23.1721 28.7297 23.26 28.7604 23.3479 28.7604C23.2599 28.7604 23.172 28.7297 23.1013 28.6681L17.5459 23.8217C17.5459 23.8216 17.546 23.8216 17.546 23.8216L23.1015 28.6681ZM37.3797 34.5425C37.3765 35.1621 37.3728 35.8528 37.3746 36.6093H37.3745C37.3728 35.8528 37.3763 35.1622 37.3796 34.5425C37.3966 31.3464 37.4052 29.742 36.6283 28.5687C35.841 27.3797 34.1761 26.4937 30.8591 24.7286C30.3458 24.4555 29.7715 24.1498 29.1598 23.8213L29.1599 23.8213C29.7716 24.1499 30.3459 24.4555 30.8593 24.7286C34.1762 26.4937 35.8411 27.3797 36.6285 28.5687C37.4054 29.742 37.3968 31.3464 37.3797 34.5425Z" fill="white"/>
<path d="M11.1347 11.5387C11.3234 11.4533 11.4073 11.231 11.3218 11.0422C11.2364 10.8533 11.0141 10.7696 10.8253 10.855L6.38235 12.8655C6.27721 12.9131 6.19977 13.0065 6.17247 13.1187C5.56291 15.6238 5.67863 17.6042 6.52617 19.1729C7.29148 20.5894 8.68436 21.7002 10.7845 22.5684C10.8314 22.5877 10.8799 22.5968 10.9277 22.5968C11.0751 22.5968 11.2148 22.5094 11.2746 22.3649C11.3538 22.1734 11.2628 21.954 11.0712 21.8748C7.14053 20.2499 5.87378 17.7314 6.85946 13.4732L11.1347 11.5387Z" fill="white"/>
</svg>
