<svg width="36" height="34" viewBox="0 0 36 34" fill="none" xmlns="http://www.w3.org/2000/svg">
<path d="M28.346 20.4261C27.7698 20.1195 27.1167 19.772 26.4211 19.3975C26.2836 19.3233 26.1146 19.3422 25.9968 19.4449L20.4825 24.2475L14.9779 19.4455C14.8602 19.3426 14.691 19.3237 14.5535 19.3977C13.6077 19.9066 12.7594 20.3524 12.011 20.7457C10.7021 21.4335 9.6642 21.979 8.83844 22.4762C1.76249 19.4921 -0.481375 14.8756 1.36242 7.09132L8.95735 3.65509L13.2541 5.70717C13.1588 6.15913 13.1084 6.62622 13.1084 7.10429C13.1084 10.6401 15.6796 17.2359 20.5949 17.2359C25.5101 17.2359 28.0813 10.6401 28.0813 7.10429C28.0813 3.18703 24.7228 0 20.5949 0C17.2498 0 14.4104 2.09268 13.4535 4.97077L9.12336 2.90267C9.0235 2.85495 8.9077 2.8539 8.80697 2.89939L0.885719 6.48337C0.780576 6.53101 0.703141 6.62438 0.675754 6.73657C-0.393049 11.1294 -0.195576 14.5919 1.27938 17.3218C2.54878 19.6713 4.71794 21.4754 8.07577 22.9647C7.33465 23.4755 6.81646 23.9666 6.45099 24.5539C5.62738 25.8773 5.64628 27.5648 5.684 30.9266C5.69209 31.6413 5.70114 32.4514 5.7029 33.3452C5.7033 33.5522 5.87122 33.7197 6.07814 33.7197H34.8853C34.9851 33.7197 35.0808 33.6799 35.1512 33.6091C35.2217 33.5384 35.261 33.4425 35.2605 33.3427C35.256 32.4411 35.2605 31.6258 35.2642 30.9065C35.3002 24.1903 35.2355 24.0923 28.346 20.4261ZM27.3308 7.10445C27.3308 8.94841 26.6294 11.3034 25.544 13.104C24.6139 14.6468 23.0003 16.4857 20.5948 16.4857H20.5947C23.0003 16.4856 24.6137 14.6467 25.5439 13.104C26.6293 11.3034 27.3306 8.94841 27.3306 7.10445C27.3306 3.60095 24.309 0.750652 20.5946 0.750572H20.5948C24.309 0.750572 27.3308 3.60087 27.3308 7.10445ZM21.2064 31.1952H19.7572V29.7606H21.2064V31.1952ZM19.7448 28.3292V26.8946H21.1941V28.3292H19.7448ZM20.2356 25.0279C20.3062 25.0895 20.394 25.1203 20.482 25.1203C20.394 25.1203 20.306 25.0895 20.2354 25.0279L14.68 20.1815C14.68 20.1815 14.6801 20.1814 14.6801 20.1814L20.2356 25.0279ZM34.5138 30.9024C34.5105 31.522 34.5068 32.2126 34.5087 32.9692H34.5086C34.5068 32.2127 34.5104 31.522 34.5136 30.9024C34.5307 27.7062 34.5393 26.1019 33.7624 24.9286C32.975 23.7396 31.3101 22.8536 27.9932 21.0885C27.4798 20.8153 26.9056 20.5097 26.2939 20.1812L26.2939 20.1811C26.9057 20.5098 27.48 20.8153 27.9934 21.0885C31.3103 22.8536 32.9752 23.7396 33.7625 24.9286C34.5394 26.1019 34.5309 27.7062 34.5138 30.9024Z" fill="#25767B"/>
<path d="M8.26873 7.89858C8.45747 7.81314 8.54132 7.59084 8.45587 7.40201C8.37043 7.21319 8.14813 7.12943 7.95939 7.21487L3.51642 9.22531C3.41127 9.27296 3.33384 9.36633 3.30653 9.47852C2.69698 11.9837 2.81269 13.9641 3.66024 15.5328C4.42554 16.9493 5.81842 18.06 7.91855 18.9282C7.96547 18.9475 8.014 18.9567 8.06181 18.9567C8.20915 18.9567 8.34889 18.8693 8.40871 18.7248C8.4879 18.5333 8.39685 18.3139 8.20531 18.2347C4.2746 16.6097 3.00784 14.0913 3.99352 9.83303L8.26873 7.89858Z" fill="#25767B"/>
</svg>
