<svg width="46" height="46" viewBox="0 0 46 46" fill="none" xmlns="http://www.w3.org/2000/svg">
<path fill-rule="evenodd" clip-rule="evenodd" d="M26.6057 31.8203C31.0876 31.2911 35.8544 29.6615 35.8544 21.9203C35.8544 19.72 35.0796 17.9269 33.8176 16.5414C34.0212 16.0122 34.6725 14.0155 33.572 11.2454C33.572 11.2454 31.9423 10.7155 28.1132 13.2821C26.4835 12.8344 24.691 12.5487 23.0207 12.5487C21.3089 12.5487 19.5158 12.8344 17.9268 13.2821C14.0561 10.7155 12.4266 11.2454 12.4266 11.2454C11.3268 14.0155 11.9789 16.0122 12.1824 16.5414C10.9191 17.9268 10.145 19.72 10.145 21.9203C10.145 29.6615 14.9118 31.2911 19.3937 31.8203C18.8237 32.3101 18.2939 33.2464 18.0903 34.5504C16.9491 35.039 13.9747 35.9765 12.1824 32.88C12.1824 32.88 11.1227 30.9655 9.1266 30.8434C9.1266 30.8434 7.12991 30.8027 8.96371 32.0645C8.96371 32.0645 10.3078 32.6765 11.2047 34.9982C11.2047 34.9982 12.4266 38.8695 18.0489 37.6468V41.1096C18.0489 41.6402 17.6419 42.2508 16.6235 42.088C8.63749 39.4393 2.89297 31.8609 2.89297 22.9793C2.89297 11.8561 11.8968 2.85236 23.0207 2.85236C34.1026 2.85236 43.1477 11.8561 43.107 22.9793C43.107 31.8609 37.3619 39.3986 29.3764 42.088C28.3574 42.2916 27.9503 41.681 27.9503 41.1096V35.5287C27.9504 33.6534 27.3384 32.4322 26.6057 31.8203ZM46 23.0207C46 10.3078 35.6916 0 23.0207 0C10.3078 0 0 10.3078 0 23.0207C0 35.6916 10.3078 46 23.0207 46C35.6916 46 46 35.6916 46 23.0207Z" fill="white"/>
</svg>
