<svg width="18" height="20" viewBox="0 0 18 20" fill="none" xmlns="http://www.w3.org/2000/svg">
<g clip-path="url(#clip0)">
<path d="M17.6275 16.4924C17.6275 17.5128 17.3268 18.3185 16.7254 18.9094C16.1241 19.5004 15.325 19.7959 14.3283 19.7959H3.52868C2.53192 19.7959 1.73287 19.5004 1.13152 18.9094C0.530167 18.3185 0.229492 17.5128 0.229492 16.4924C0.229492 16.0417 0.243908 15.6016 0.27274 15.1722C0.301572 14.7428 0.359236 14.2793 0.445731 13.7819C0.532227 13.2844 0.641376 12.8231 0.773179 12.398C0.904981 11.9728 1.08209 11.5583 1.30451 11.1543C1.52693 10.7504 1.78229 10.406 2.07061 10.1212C2.35893 9.83631 2.71109 9.60885 3.12709 9.43878C3.5431 9.26871 4.00235 9.18368 4.50484 9.18368C4.57898 9.18368 4.75197 9.27509 5.02382 9.45791C5.29566 9.64074 5.60251 9.84482 5.94438 10.0702C6.28624 10.2955 6.73107 10.4996 7.27888 10.6824C7.82668 10.8652 8.37655 10.9566 8.92847 10.9566C9.4804 10.9566 10.0303 10.8652 10.5781 10.6824C11.1259 10.4996 11.5707 10.2955 11.9126 10.0702C12.2544 9.84482 12.5613 9.64074 12.8331 9.45791C13.105 9.27509 13.278 9.18368 13.3521 9.18368C13.8546 9.18368 14.3139 9.26871 14.7299 9.43878C15.1459 9.60885 15.498 9.83631 15.7863 10.1212C16.0747 10.406 16.33 10.7504 16.5524 11.1543C16.7749 11.5583 16.952 11.9728 17.0838 12.398C17.2156 12.8231 17.3247 13.2844 17.4112 13.7819C17.4977 14.2793 17.5554 14.7428 17.5842 15.1722C17.613 15.6016 17.6275 16.0417 17.6275 16.4924ZM13.6734 5.10205C13.6734 6.45409 13.21 7.60842 12.2833 8.56506C11.3565 9.52169 10.2383 10 8.92847 10C7.61868 10 6.50042 9.52169 5.57368 8.56506C4.64694 7.60842 4.18357 6.45409 4.18357 5.10205C4.18357 3.75 4.64694 2.59567 5.57368 1.63904C6.50042 0.682403 7.61868 0.204086 8.92847 0.204086C10.2383 0.204086 11.3565 0.682403 12.2833 1.63904C13.21 2.59567 13.6734 3.75 13.6734 5.10205Z" fill="black" fill-opacity="0.5"/>
</g>
<defs>
<clipPath id="clip0">
<rect width="17.8571" height="20" fill="white"/>
</clipPath>
</defs>
</svg>
