<svg width="18" height="20" viewBox="0 0 18 20" fill="none" xmlns="http://www.w3.org/2000/svg">
<path d="M16.7837 9.48865C16.5185 9.22348 16.1966 9.09099 15.8177 9.09099H15.3634V6.36356C15.3634 4.62117 14.7386 3.12509 13.4885 1.87508C12.2386 0.625028 10.7426 0 8.99999 0C7.2574 0 5.76117 0.625028 4.51131 1.87503C3.26126 3.12509 2.63643 4.62112 2.63643 6.36356V9.09099H2.18195C1.80329 9.09099 1.48125 9.22348 1.21607 9.48865C0.950897 9.75363 0.818359 10.0757 0.818359 10.4547V18.6364C0.818359 19.0151 0.950947 19.3372 1.21607 19.6024C1.48125 19.8674 1.80329 20 2.18195 20H15.818C16.197 20 16.5188 19.8675 16.7841 19.6024C17.049 19.3372 17.1818 19.0151 17.1818 18.6364V10.4545C17.182 10.0758 17.049 9.75383 16.7837 9.48865ZM12.6363 9.09099H5.36371V6.36356C5.36371 5.35983 5.71888 4.50276 6.42908 3.79266C7.13939 3.08245 7.99631 2.72743 9.00014 2.72743C10.0041 2.72743 10.8608 3.0824 11.5711 3.79266C12.2812 4.50271 12.6363 5.35983 12.6363 6.36356V9.09099Z" fill="black" fill-opacity="0.5"/>
</svg>
