<svg width="30" height="30" viewBox="0 0 30 30" fill="none" xmlns="http://www.w3.org/2000/svg">
<rect width="30" height="30" rx="5" fill="#CB0000"/>
<path fill-rule="evenodd" clip-rule="evenodd" d="M22.4584 9.16656H19.75V6.66659C19.75 5.74584 19.0042 5 18.0833 5H11.4167C10.4959 5 9.75 5.74588 9.75 6.66659V9.1666H7.04164C6.46673 9.1666 6 9.63333 6 10.2083C6 10.7832 6.46673 11.25 7.04164 11.25H7.66668V23.3334C7.66668 24.2542 8.41247 25 9.33331 25H20.1668C21.0876 25 21.8334 24.2542 21.8334 23.3334V11.25H22.4584C23.0333 11.25 23.5002 10.7832 23.5002 10.2083C23.5001 9.63329 23.0333 9.16656 22.4584 9.16656ZM17.6667 9.16656H11.8333V8.00008C11.8333 7.49181 12.2419 7.08328 12.7501 7.08328H16.7499C17.2582 7.08328 17.6667 7.49185 17.6667 8.00008L17.6667 9.16656ZM11.8333 12.0833V22.0833C11.8333 22.5415 11.4581 22.9167 11 22.9167C10.5419 22.9167 10.1667 22.5415 10.1667 22.0833V12.0833C10.1667 11.6252 10.5418 11.25 11 11.25C11.4581 11.25 11.8333 11.6252 11.8333 12.0833ZM15.5834 12.0833V22.0833C15.5834 22.5415 15.2082 22.9167 14.75 22.9167C14.2919 22.9167 13.9167 22.5415 13.9167 22.0833V12.0833C13.9167 11.6252 14.2919 11.25 14.75 11.25C15.2082 11.25 15.5834 11.6252 15.5834 12.0833ZM19.3333 12.0833V22.0833C19.3333 22.5415 18.9581 22.9167 18.5 22.9167C18.0419 22.9167 17.6667 22.5415 17.6667 22.0833V12.0833C17.6667 11.6252 18.0419 11.25 18.5 11.25C18.9581 11.25 19.3333 11.6252 19.3333 12.0833Z" fill="white"/>
</svg>
