<svg width="24" height="22" viewBox="0 0 24 22" fill="none" xmlns="http://www.w3.org/2000/svg">
<path d="M23 0H1C0.4 0 0 0.4 0 1V13C0 13.6 0.4 14 1 14H23C23.6 14 24 13.6 24 13V1C24 0.4 23.6 0 23 0ZM2.5 9C2.3 9 2.1 9 2 9.1V4.9C2.1 5 2.3 5 2.5 5C3.9 5 5 3.9 5 2.5C5 2.3 5 2.1 4.9 2H19C19 2.1 19 2.3 19 2.5C19 3.9 20.1 5 21.5 5C21.7 5 21.9 5 22 4.9V9C21.9 9 21.7 8.9 21.5 8.9C20.1 8.9 19 10 19 11.4C19 11.6 19 11.8 19.1 11.9H4.9C5 11.9 5 11.7 5 11.5C5 10.1 3.9 9 2.5 9ZM9 7C9 5.3 10.3 4 12 4C13.7 4 15 5.3 15 7C15 8.7 13.7 10 12 10C10.3 10 9 8.7 9 7ZM2 17V16H22V17C22 17.6 21.6 18 21 18H3C2.4 18 2 17.6 2 17ZM4.4 21V20H19.4V21C19.4 21.6 19 22 18.4 22H5.4C4.8 22 4.4 21.6 4.4 21Z" fill="white"/>
</svg>
