<svg width="33" height="33" viewBox="0 0 33 33" fill="none" xmlns="http://www.w3.org/2000/svg">
<path d="M29.9317 12.5206C28.8986 12.5206 28.0597 13.3591 28.0597 14.3888C28.0597 15.4192 28.8986 16.2566 29.9317 16.2566C30.9614 16.2566 31.7996 15.4189 31.7996 14.3888C31.7996 13.3591 30.961 12.5206 29.9317 12.5206ZM3.07211 12.5206C2.03899 12.5206 1.20006 13.3591 1.20006 14.3888C1.20006 15.4192 2.03899 16.2566 3.07211 16.2566C4.10255 16.2566 4.9411 15.4189 4.9411 14.3888C4.9411 13.3591 4.10255 12.5206 3.07211 12.5206ZM24.3712 9.12258C22.8373 9.12258 21.5931 10.3699 21.5931 11.905C21.5931 13.437 22.8373 14.682 24.3712 14.682C25.9055 14.682 27.1536 13.437 27.1536 11.905C27.1536 10.3714 25.9055 9.12258 24.3712 9.12258ZM33 26.0311H29.8323V20.2007C29.8323 19.1991 29.538 18.2692 29.0652 17.4583C29.3438 17.3769 29.6297 17.3189 29.9317 17.3189C31.6207 17.3189 33 18.6982 33 20.3915V26.0311ZM8.6284 9.12258C7.0933 9.12258 5.84604 10.3699 5.84604 11.905C5.84604 13.437 7.0933 14.682 8.6284 14.682C10.1585 14.682 11.4058 13.437 11.4058 11.905C11.4058 10.3714 10.1589 9.12258 8.6284 9.12258ZM3.07211 17.3189C3.37415 17.3189 3.65622 17.3765 3.93561 17.4583C3.45781 18.2692 3.16844 19.1991 3.16844 20.2007V26.0311H0V20.3915C0 18.6979 1.38005 17.3189 3.07211 17.3189ZM16.4969 3.56738C14.2327 3.56738 12.3867 5.41144 12.3867 7.67804C12.3867 9.94425 14.2307 11.7906 16.4969 11.7906C18.7635 11.7906 20.6098 9.94425 20.6098 7.67804C20.6118 5.41106 18.7635 3.56738 16.4969 3.56738ZM28.8149 28.201H23.9621V19.3299C23.9621 18.1099 23.6401 16.9751 23.1197 15.9577C23.5169 15.8402 23.9345 15.757 24.3716 15.757C26.8201 15.757 28.8149 17.748 28.8149 20.2007V28.201ZM9.0329 19.3299V28.201H4.18621V20.2007C4.18621 17.7503 6.17839 15.757 8.6307 15.757C9.06782 15.757 9.48115 15.8402 9.87759 15.9577C9.35681 16.9751 9.0329 18.1099 9.0329 19.3299ZM10.0503 30.7689H22.9443V19.3299C22.9443 15.7746 20.0511 12.8832 16.4965 12.8832C12.9393 12.8832 10.0503 15.7746 10.0503 19.3299V30.7689Z" fill="#25767B"/>
</svg>
