<svg width="30" height="30" viewBox="0 0 30 30" fill="none" xmlns="http://www.w3.org/2000/svg">
<g clip-path="url(#clip0)">
<path d="M29.0625 11.25H18.75V0.937519C18.75 0.419738 18.3303 0 17.8125 0H12.1875C11.6697 0 11.25 0.419738 11.25 0.937519V11.25H0.937519C0.419738 11.25 0 11.6697 0 12.1875V17.8125C0 18.3303 0.419738 18.75 0.937519 18.75H11.25V29.0625C11.25 29.5803 11.6697 30 12.1875 30H17.8125C18.3303 30 18.75 29.5803 18.75 29.0625V18.75H29.0625C29.5803 18.75 30.0001 18.3303 30.0001 17.8125V12.1875C30 11.6697 29.5803 11.25 29.0625 11.25Z" fill="#25767B"/>
</g>
<defs>
<clipPath id="clip0">
<rect width="30" height="30" fill="white"/>
</clipPath>
</defs>
</svg>
