<svg width="20" height="16" viewBox="0 0 20 16" fill="none" xmlns="http://www.w3.org/2000/svg">
<path d="M1.23006 14.7751V1.80176H0V14.7751V16H1.23006H20V14.7751H1.23006Z" fill="white"/>
<path d="M4.89253 7.89226C4.89253 7.42482 4.50841 7.04163 4.03804 7.04163H2.97033C2.50097 7.04163 2.11707 7.42482 2.11707 7.89226V13.9722H4.89253V7.89226Z" fill="white"/>
<path d="M7.38709 5.34033C6.91773 5.34033 6.5332 5.72271 6.5332 6.19096V13.9722H9.30786V6.19096C9.30786 5.72271 8.92456 5.34033 8.45418 5.34033H7.38709Z" fill="white"/>
<path d="M11.803 7.04163C11.3334 7.04163 10.9485 7.42482 10.9485 7.89226V13.9722H13.724V7.89226C13.724 7.42482 13.3407 7.04163 12.8707 7.04163H11.803Z" fill="white"/>
<path d="M17.2864 3.63831H16.2187C15.7491 3.63831 15.3646 4.0215 15.3646 4.48894V13.9723H18.1405V4.48894C18.1405 4.0215 17.7564 3.63831 17.2864 3.63831Z" fill="white"/>
<path d="M3.94327 5.95605L8.0198 2.69449L11.7668 6.02734C11.8481 6.09944 11.9499 6.13508 12.052 6.13508C12.159 6.13508 12.2656 6.09539 12.3482 6.016L16.886 1.65428L17.7986 2.56162H18.0346V0H15.461V0.234942L16.2821 1.05236L12.0402 5.12973L8.31929 1.81955C8.16304 1.6802 7.93008 1.67453 7.76652 1.80497L3.4082 5.29337C3.22387 5.44081 3.19437 5.70815 3.34207 5.89205C3.49059 6.07433 3.75935 6.10349 3.94327 5.95605Z" fill="white"/>
</svg>
