<svg width="39" height="31" viewBox="0 0 39 31" fill="none" xmlns="http://www.w3.org/2000/svg">
<path d="M2.39862 28.6266V3.49072H0V28.6266V30.9999H2.39862H39V28.6266H2.39862Z" fill="white"/>
<path d="M9.54052 15.2912C9.54052 14.3855 8.79149 13.6431 7.87426 13.6431H5.79222C4.87697 13.6431 4.12836 14.3855 4.12836 15.2912V27.0711H9.54052V15.2912Z" fill="white"/>
<path d="M14.4048 10.3469C13.4896 10.3469 12.7398 11.0878 12.7398 11.995V27.0712H18.1504V11.995C18.1504 11.0878 17.4029 10.3469 16.4857 10.3469H14.4048Z" fill="white"/>
<path d="M23.0158 13.6431C22.1001 13.6431 21.3495 14.3855 21.3495 15.2912V27.0711H26.7617V15.2912C26.7617 14.3855 26.0142 13.6431 25.0978 13.6431H23.0158Z" fill="white"/>
<path d="M33.7084 7.04907H31.6264C30.7108 7.04907 29.961 7.79151 29.961 8.69717V27.0711H35.3739V8.69717C35.3739 7.79151 34.6249 7.04907 33.7084 7.04907Z" fill="white"/>
<path d="M7.68937 11.5398L15.6386 5.22057L22.9452 11.678C23.1039 11.8177 23.3022 11.8867 23.5014 11.8867C23.7101 11.8867 23.9179 11.8098 24.079 11.656L32.9276 3.20518L34.7073 4.96314H35.1675V0H30.149V0.4552L31.7501 2.03894L23.4784 9.93885L16.2226 3.52538C15.9179 3.2554 15.4637 3.24441 15.1447 3.49712L6.64597 10.2559C6.28653 10.5416 6.229 11.0595 6.51702 11.4158C6.80665 11.769 7.33072 11.8255 7.68937 11.5398Z" fill="white"/>
</svg>
