<svg width="38" height="38" viewBox="0 0 38 38" fill="none" xmlns="http://www.w3.org/2000/svg">
<path d="M32.5541 29.1959L26.5252 23.1669C27.7709 21.2895 28.5 19.0416 28.5 16.625C28.5 10.0771 23.1729 4.75 16.625 4.75C10.0771 4.75 4.75 10.0771 4.75 16.625C4.75 23.1729 10.0771 28.5 16.625 28.5C19.0416 28.5 21.2895 27.7709 23.1669 26.5252L29.1959 32.5541C30.1221 33.4816 31.6279 33.4816 32.5541 32.5541C33.4816 31.6267 33.4816 30.1233 32.5541 29.1959ZM8.3125 16.625C8.3125 12.0412 12.0412 8.3125 16.625 8.3125C21.2087 8.3125 24.9375 12.0412 24.9375 16.625C24.9375 21.2087 21.2087 24.9375 16.625 24.9375C12.0412 24.9375 8.3125 21.2087 8.3125 16.625Z" fill="#25767B"/>
</svg>
