<svg width="22" height="22" viewBox="0 0 22 22" fill="none" xmlns="http://www.w3.org/2000/svg">
<path d="M15.8123 6.80559C15.8226 8.13381 15.3284 9.4149 14.4325 10.3824C13.5367 11.3499 12.3082 11.9292 11.0026 12C9.69704 11.9292 8.46856 11.3499 7.57273 10.3824C6.6769 9.4149 6.1827 8.13381 6.19292 6.80559C6.16204 6.14514 6.26342 5.4852 6.49093 4.86572C6.71843 4.24624 7.06733 3.68011 7.51649 3.20161C7.96565 2.72312 8.50573 2.34221 9.10402 2.08195C9.70232 1.82169 10.3464 1.6875 10.9972 1.6875C11.648 1.6875 12.2921 1.82169 12.8904 2.08195C13.4887 2.34221 14.0288 2.72312 14.4779 3.20161C14.9271 3.68011 15.276 4.24624 15.5035 4.86572C15.731 5.4852 15.8324 6.14514 15.8015 6.80559H15.8123Z" stroke="white" stroke-width="2" stroke-linecap="round" stroke-linejoin="round"/>
<path d="M20.625 22.3125C20.625 19.7598 19.6109 17.3116 17.8059 15.5066C16.0009 13.7016 13.5527 12.6875 11 12.6875C8.44729 12.6875 5.99913 13.7016 4.1941 15.5066C2.38906 17.3116 1.375 19.7598 1.375 22.3125H20.625Z" stroke="white" stroke-width="2" stroke-linecap="round" stroke-linejoin="round"/>
<path d="M20.625 20.25H1.375V22.3125H20.625V20.25Z" fill="white"/>
</svg>
