<svg width="48" height="45" viewBox="0 0 48 45" fill="none" xmlns="http://www.w3.org/2000/svg">
<path d="M0 29.0408H9.42366C8.79722 29.8403 8.41883 30.8184 8.41883 31.8984H3.7767L0 30.9854V29.0408ZM48 23.9471V31.899H44C44 31.7855 43.9843 31.6784 43.9747 31.5649C43.9312 30.9146 43.7435 30.2942 43.4466 29.7332C42.6186 28.1883 40.9409 27.1319 39 27.1319C36.2378 27.1319 33.997 29.2677 33.997 31.8984H18.4158C18.4158 30.8184 18.0392 29.8403 17.408 29.0408H32.3066V12.4918H40.6632V14.4002L43.3289 22.0359L48 23.9471ZM41.3277 22.0364L39.3337 16.3097H34.6657V22.0364H41.3277ZM17.0815 31.8984C17.0815 33.8309 15.4412 35.4 13.4206 35.4C11.3923 35.4 9.75317 33.8252 9.75317 31.8984C9.75317 29.9745 11.3953 28.4031 13.4206 28.4031C15.4406 28.4031 17.0815 29.9716 17.0815 31.8984ZM15.417 31.8984C15.417 30.8489 14.5184 29.9895 13.42 29.9895C12.3108 29.9895 11.4104 30.8489 11.4104 31.8984C11.4104 32.9606 12.3102 33.8067 13.42 33.8067C14.519 33.8073 15.417 32.9606 15.417 31.8984ZM42.6657 31.8984C42.6657 33.8309 41.0187 35.4 39 35.4C36.9626 35.4 35.3313 33.8252 35.3313 31.8984C35.3313 29.9745 36.9753 28.4031 39 28.4031C41.0187 28.4031 42.6657 29.9716 42.6657 31.8984ZM41.0006 31.8984C41.0006 30.8489 40.1038 29.9895 39.0006 29.9895C37.8847 29.9895 37.0012 30.8489 37.0012 31.8984C37.0012 32.9606 37.8853 33.8067 39.0006 33.8067C40.1032 33.8073 41.0006 32.9606 41.0006 31.8984ZM30.5878 10H0V27.9435H30.5878V10Z" fill="#25767B"/>
</svg>
