<svg width="43" height="43" viewBox="0 0 43 43" fill="none" xmlns="http://www.w3.org/2000/svg">
<path d="M13.8675 31.8786C11.9164 31.8786 10.32 33.3695 10.32 35.1916C10.32 37.0137 11.9164 38.5045 13.8675 38.5045C15.8186 38.5045 17.415 37.0137 17.415 35.1916C17.415 33.3695 15.8186 31.8786 13.8675 31.8786ZM3.22501 5.375V8.68795H6.77251L13.158 21.2772L10.6748 25.2527C10.4974 25.7497 10.32 26.4123 10.32 26.9092C10.32 28.7313 11.9164 30.2222 13.8675 30.2222H35.1525V26.9092H14.577C14.3996 26.9092 14.2223 26.7436 14.2223 26.5779V26.4122L15.8186 23.5962H28.9444C30.3634 23.5962 31.4276 22.9336 31.9598 21.9397L38.3453 11.1727C38.7 10.8414 38.7 10.6757 38.7 10.3444C38.7 9.35055 37.9905 8.68795 36.9263 8.68795H10.6748L9.07838 5.375H3.22501ZM31.605 31.8786C29.6539 31.8786 28.0575 33.3695 28.0575 35.1916C28.0575 37.0137 29.6539 38.5045 31.605 38.5045C33.5561 38.5045 35.1525 37.0137 35.1525 35.1916C35.1525 33.3695 33.5561 31.8786 31.605 31.8786Z" fill="white"/>
</svg>
