<svg width="20" height="20" viewBox="0 0 20 20" fill="none" xmlns="http://www.w3.org/2000/svg">
<path d="M6.45 14.8273C5.5425 14.8273 4.8 15.5207 4.8 16.3682C4.8 17.2157 5.5425 17.9091 6.45 17.9091C7.3575 17.9091 8.1 17.2157 8.1 16.3682C8.1 15.5207 7.3575 14.8273 6.45 14.8273ZM1.5 2.5V4.04091H3.15L6.12 9.89636L4.965 11.7455C4.8825 11.9766 4.8 12.2848 4.8 12.5159C4.8 13.3634 5.5425 14.0568 6.45 14.0568H16.35V12.5159H6.78C6.6975 12.5159 6.615 12.4389 6.615 12.3618V12.2847L7.3575 10.975H13.4625C14.1225 10.975 14.6175 10.6668 14.865 10.2045L17.835 5.19659C18 5.0425 18 4.96545 18 4.81136C18 4.34909 17.67 4.04091 17.175 4.04091H4.965L4.2225 2.5H1.5ZM14.7 14.8273C13.7925 14.8273 13.05 15.5207 13.05 16.3682C13.05 17.2157 13.7925 17.9091 14.7 17.9091C15.6075 17.9091 16.35 17.2157 16.35 16.3682C16.35 15.5207 15.6075 14.8273 14.7 14.8273Z" fill="white"/>
</svg>
