<svg width="20" height="20" viewBox="0 0 20 20" fill="none" xmlns="http://www.w3.org/2000/svg">
<path d="M16.5313 7.625H11.375V2.46876C11.375 2.20987 11.1651 2 10.9063 2H8.09376C7.83487 2 7.625 2.20987 7.625 2.46876V7.625H2.46876C2.20987 7.625 2 7.83487 2 8.09376V10.9063C2 11.1651 2.20987 11.375 2.46876 11.375H7.625V16.5313C7.625 16.7901 7.83487 17 8.09376 17H10.9063C11.1651 17 11.375 16.7901 11.375 16.5313V11.375H16.5313C16.7901 11.375 17 11.1651 17 10.9063V8.09376C17 7.83487 16.7901 7.625 16.5313 7.625Z" fill="white"/>
</svg>
