<svg width="19" height="19" viewBox="0 0 19 19" fill="none" xmlns="http://www.w3.org/2000/svg">
<path d="M9.50002 7.91658C10.3709 7.91658 11.0834 7.20408 11.0834 6.33325V3.16659C11.0834 2.29575 10.3709 1.58325 9.50002 1.58325C8.62919 1.58325 7.91669 2.29575 7.91669 3.16659V6.33325C7.91669 7.20408 8.62919 7.91658 9.50002 7.91658Z" fill="white"/>
<path d="M15.1208 3.87917C14.8833 3.64167 14.6458 3.5625 14.25 3.5625C13.6167 3.5625 13.0625 4.11667 13.0625 4.75C13.0625 5.06667 13.2208 5.38333 13.3792 5.62083C14.4083 6.65 14.9625 7.99583 14.9625 9.5C14.9625 12.5875 12.5083 15.0417 9.42084 15.0417C6.33334 15.0417 3.87918 12.5875 3.87918 9.5C3.87918 7.99583 4.51251 6.57083 5.54168 5.62083C5.77918 5.38333 5.93751 5.06667 5.93751 4.75C5.93751 4.11667 5.38334 3.5625 4.75001 3.5625C4.43334 3.5625 4.11668 3.72083 3.87918 3.87917C2.45418 5.30417 1.58334 7.28333 1.58334 9.5C1.58334 13.8542 5.14584 17.4167 9.50001 17.4167C13.8542 17.4167 17.4167 13.8542 17.4167 9.5C17.4167 7.28333 16.5458 5.30417 15.1208 3.87917Z" fill="white"/>
</svg>
